# xmcd
#
# Track frame offsets: 
#        150
#        15012
#        29415
#        41490
#        54330
#        68000
#        80917
#        95037
#        108460
#        119592
#        129562
#        140762
#        159157
#        182552
#        214857
#        233125
#        251027
#
# Disc length: 3514 seconds
#
# Revision: 1
# Processed by: cddbd v1.5.2PL0 Copyright (c) Steve Scherf et al.
# Submitted via: ExactAudioCopy v0.99pb4
#
DISCID=e90db811
DTITLE=John Lee Hooker - Hobo Blues
DYEAR=1993
DGENRE=Blues
TTITLE0=Boogie Chillen'
TTITLE1=Sally Mae
TTITLE2=Let Your Daddy Ride
TTITLE3=Weeping Willow Boogie
TTITLE4=Hobo Blues
TTITLE5=Huckle Up Baby
TTITLE6=I'm In The Mood
TTITLE7=John L'S House Rent Boogie
TTITLE8=I Need Some Money
TTITLE9=Dimples
TTITLE10=Bottle Up And Go
TTITLE11=Shake It Baby
TTITLE12=I'm Bad Like Jesse James
TTITLE13=Let's Go Out Tonight
TTITLE14=I Cover The Waterfront
TTITLE15=Burning Hell
TTITLE16=Terraplane Blues
EXTD=YEAR: 1993 ID3G: 0
EXTT0=
EXTT1=
EXTT2=
EXTT3=
EXTT4=
EXTT5=
EXTT6=
EXTT7=
EXTT8=
EXTT9=
EXTT10=
EXTT11=
EXTT12=
EXTT13=
EXTT14=
EXTT15=
EXTT16=
PLAYORDER=
